<svg width="300" height="300" viewBox="0 0 300 300" fill="none" xmlns="http://www.w3.org/2000/svg">
  <rect width="300" height="300" rx="55" fill="#000000"/>
  <path d="M118.36 109.56C107.608 108.6 100.504 111.864 100.504 123H118.36V150.648H100.504V219H71.704V150.648H58.84V123H71.704C71.704 96.12 86.488 79.992 118.36 81.912V109.56ZM182.673 109.56C171.921 108.6 164.817 111.864 164.817 123H182.673V150.648H164.817V219H136.017V150.648H123.153V123H136.017C136.017 96.12 150.801 79.992 182.673 81.912V109.56Z"
        fill="#FFFFFF"/>
  <path d="M198.048 171L192.288 123V84.6H226.848V123L221.088 171H198.048ZM209.568 221.688C199.584 221.688 191.328 213.432 191.328 203.448C191.328 193.464 199.584 185.208 209.568 185.208C219.552 185.208 227.808 193.464 227.808 203.448C227.808 213.432 219.552 221.688 209.568 221.688Z"
        fill="#FDC300"/>
</svg>
