<svg width="16" height="16" viewBox="0 0 16 16" xmlns="http://www.w3.org/2000/svg">
  <defs>
    <clipPath id="clip-left">
      <rect x="0" y="0" width="8" height="16" />
    </clipPath>
    <clipPath id="clip-right">
      <rect x="8" y="0" width="8" height="16" />
    </clipPath>
  </defs>
  <g clip-path="url(#clip-left)">
    <path
      fill="#dc3545"
      fill-rule="evenodd"
      d="M8 14.933a.615.615 0 0 0 .1-.025c.076-.023.174-.061.294-.118.24-.113.547-.29.893-.533a10.726 10.726 0 0 0 2.287-2.233c1.527-1.997 2.807-5.031 2.253-9.188a.48.48 0 0 0-.328-.39c-.651-.213-1.75-.56-2.837-.855C9.552 1.29 8.531 1.067 8 1.067c-.53 0-1.552.223-2.662.524-1.087.295-2.186.642-2.837.855a.481.481 0 0 0-.328.39c-.554 4.157.726 7.19 2.253 9.188a10.725 10.725 0 0 0 2.287 2.233c.346.244.653.42.893.533.12.057.218.095.294.118a.615.615 0 0 0 .1.025z"
    />
  </g>
  <g clip-path="url(#clip-right)">
    <path
      fill="#ffffff"
      fill-rule="evenodd"
      d="M8 14.933a.615.615 0 0 0 .1-.025c.076-.023.174-.061.294-.118.24-.113.547-.29.893-.533a10.726 10.726 0 0 0 2.287-2.233c1.527-1.997 2.807-5.031 2.253-9.188a.48.48 0 0 0-.328-.39c-.651-.213-1.75-.56-2.837-.855C9.552 1.29 8.531 1.067 8 1.067c-.53 0-1.552.223-2.662.524-1.087.295-2.186.642-2.837.855a.481.481 0 0 0-.328.39c-.554 4.157.726 7.19 2.253 9.188a10.725 10.725 0 0 0 2.287 2.233c.346.244.653.42.893.533.12.057.218.095.294.118a.615.615 0 0 0 .1.025z"
    />
  </g>
  <path
    fill="none"
    stroke="#000000"
    stroke-width="1"
    fill-rule="evenodd"
    d="M8 14.933a.615.615 0 0 0 .1-.025c.076-.023.174-.061.294-.118.24-.113.547-.29.893-.533a10.726 10.726 0 0 0 2.287-2.233c1.527-1.997 2.807-5.031 2.253-9.188a.48.48 0 0 0-.328-.39c-.651-.213-1.75-.56-2.837-.855C9.552 1.29 8.531 1.067 8 1.067c-.53 0-1.552.223-2.662.524-1.087.295-2.186.642-2.837.855a.481.481 0 0 0-.328.39c-.554 4.157.726 7.19 2.253 9.188a10.725 10.725 0 0 0 2.287 2.233c.346.244.653.42.893.533.12.057.218.095.294.118a.615.615 0 0 0 .1.025z"
  />
</svg>
